<svg width="20" height="24" viewBox="0 0 20 24" fill="none" xmlns="http://www.w3.org/2000/svg">
<path d="M9.99997 0.882355C6.73049 0.882355 4.07056 3.54229 4.07056 6.81177C4.07056 10.0812 6.73049 12.7412 9.99997 12.7412C13.2694 12.7412 15.9294 10.0812 15.9294 6.81177C15.9294 3.54229 13.2694 0.882355 9.99997 0.882355Z" fill="#05173E"/>
<path d="M17.3774 16.6148C15.754 14.9665 13.602 14.0588 11.3177 14.0588H8.68238C6.39811 14.0588 4.24604 14.9665 2.6227 16.6148C1.00731 18.255 0.117676 20.4201 0.117676 22.7114C0.117676 23.0752 0.412653 23.3702 0.776499 23.3702H19.2236C19.5874 23.3702 19.8824 23.0752 19.8824 22.7114C19.8824 20.4201 18.9928 18.255 17.3774 16.6148Z" fill="#05173E"/>
</svg>
