<svg width="42" height="42" viewBox="0 0 42 42" fill="none" xmlns="http://www.w3.org/2000/svg">
<circle cx="21" cy="21" r="21" fill="white"/>
<path d="M21 9.88235C17.7305 9.88235 15.0706 12.5423 15.0706 15.8118C15.0706 19.0812 17.7305 21.7412 21 21.7412C24.2694 21.7412 26.9294 19.0812 26.9294 15.8118C26.9294 12.5423 24.2694 9.88235 21 9.88235Z" fill="#05173E"/>
<path d="M28.3774 25.6148C26.754 23.9665 24.602 23.0588 22.3177 23.0588H19.6824C17.3981 23.0588 15.246 23.9665 13.6227 25.6148C12.0073 27.255 11.1177 29.4201 11.1177 31.7114C11.1177 32.0752 11.4127 32.3702 11.7765 32.3702H30.2236C30.5874 32.3702 30.8824 32.0752 30.8824 31.7114C30.8824 29.4201 29.9928 27.255 28.3774 25.6148Z" fill="#05173E"/>
</svg>
